<?xml version="1.0" encoding="UTF-8"?> <svg xmlns="http://www.w3.org/2000/svg" xmlns:xlink="http://www.w3.org/1999/xlink" width="47.58" height="32.16" viewBox="0 0 47.58 32.16"> <defs> <linearGradient id="linear-gradient" x1="-33.4" y1="19.08" x2="154.26" y2="8.41" gradientUnits="userSpaceOnUse"> <stop offset="0" stop-color="#6cf6ff"></stop> <stop offset="0.01" stop-color="#6af2fc"></stop> <stop offset="0.3" stop-color="#459eb5"></stop> <stop offset="0.55" stop-color="#275a7c"></stop> <stop offset="0.75" stop-color="#122a53"></stop> <stop offset="0.91" stop-color="#050c3a"></stop> <stop offset="1" stop-color="#000131"></stop> </linearGradient> <radialGradient id="radial-gradient" cx="48.38" cy="21.36" r="60.44" gradientUnits="userSpaceOnUse"> <stop offset="0" stop-color="#b5f"></stop> <stop offset="0.04" stop-color="#ab41fa"></stop> <stop offset="0.11" stop-color="#901ef1"></stop> <stop offset="0.17" stop-color="#7f08eb"></stop> <stop offset="0.2" stop-color="#7900e9"></stop> <stop offset="0.22" stop-color="#7200dc"></stop> <stop offset="0.31" stop-color="#5400a2"></stop> <stop offset="0.4" stop-color="#3b0071"></stop> <stop offset="0.49" stop-color="#260048"></stop> <stop offset="0.58" stop-color="#150029"></stop> <stop offset="0.66" stop-color="#090012"></stop> <stop offset="0.74" stop-color="#020005"></stop> <stop offset="0.81"></stop> </radialGradient> <linearGradient id="linear-gradient-2" x1="-1.01" y1="16.65" x2="49.24" y2="14.57" gradientUnits="userSpaceOnUse"> <stop offset="0" stop-color="#a5ffff"></stop> <stop offset="0.29" stop-color="#99fdff"></stop> <stop offset="0.83" stop-color="#78f8ff"></stop> <stop offset="1" stop-color="#6cf6ff"></stop> </linearGradient> <linearGradient id="linear-gradient-3" x1="-0.97" y1="17.59" x2="49.28" y2="15.5" xlink:href="#linear-gradient-2"></linearGradient> <linearGradient id="linear-gradient-4" x1="-0.93" y1="18.52" x2="49.32" y2="16.44" xlink:href="#linear-gradient-2"></linearGradient> <linearGradient id="linear-gradient-5" x1="-0.9" y1="19.46" x2="49.36" y2="17.38" xlink:href="#linear-gradient-2"></linearGradient> <linearGradient id="linear-gradient-6" x1="-0.85" y1="20.4" x2="49.4" y2="18.31" xlink:href="#linear-gradient-2"></linearGradient> <linearGradient id="linear-gradient-7" x1="-0.86" y1="20.22" x2="49.39" y2="18.14" xlink:href="#linear-gradient-2"></linearGradient> <linearGradient id="linear-gradient-8" x1="-0.82" y1="21.34" x2="49.43" y2="19.25" xlink:href="#linear-gradient-2"></linearGradient> <linearGradient id="linear-gradient-9" x1="-0.78" y1="22.27" x2="49.48" y2="20.19" xlink:href="#linear-gradient-2"></linearGradient> <linearGradient id="linear-gradient-10" x1="-0.73" y1="23.21" x2="49.51" y2="21.13" xlink:href="#linear-gradient-2"></linearGradient> <linearGradient id="linear-gradient-11" x1="-1.44" y1="6.28" x2="48.81" y2="4.2" xlink:href="#linear-gradient-2"></linearGradient> <linearGradient id="linear-gradient-12" x1="-1.4" y1="7.22" x2="48.85" y2="5.14" xlink:href="#linear-gradient-2"></linearGradient> <linearGradient id="linear-gradient-13" x1="-1.36" y1="8.16" x2="48.89" y2="6.07" xlink:href="#linear-gradient-2"></linearGradient> <linearGradient id="linear-gradient-14" x1="-1.32" y1="9.1" x2="48.93" y2="7.01" xlink:href="#linear-gradient-2"></linearGradient> <linearGradient id="linear-gradient-15" x1="-1.28" y1="10.04" x2="48.97" y2="7.95" xlink:href="#linear-gradient-2"></linearGradient> <linearGradient id="linear-gradient-16" x1="-1.24" y1="10.98" x2="49" y2="8.89" xlink:href="#linear-gradient-2"></linearGradient> <linearGradient id="linear-gradient-17" x1="-1.21" y1="11.92" x2="49.04" y2="9.83" xlink:href="#linear-gradient-2"></linearGradient> <linearGradient id="linear-gradient-18" x1="-0.98" y1="17.46" x2="49.27" y2="15.38" xlink:href="#linear-gradient-2"></linearGradient> <linearGradient id="linear-gradient-19" x1="-0.98" y1="17.31" x2="49.27" y2="15.22" xlink:href="#linear-gradient-2"></linearGradient> <linearGradient id="linear-gradient-20" x1="-0.94" y1="18.34" x2="49.31" y2="16.26" xlink:href="#linear-gradient-2"></linearGradient> <linearGradient id="linear-gradient-21" x1="-0.89" y1="19.41" x2="49.35" y2="17.32" xlink:href="#linear-gradient-2"></linearGradient> <linearGradient id="linear-gradient-22" x1="-0.9" y1="19.21" x2="49.35" y2="17.13" xlink:href="#linear-gradient-2"></linearGradient> <linearGradient id="linear-gradient-23" x1="-0.86" y1="20.31" x2="49.39" y2="18.23" xlink:href="#linear-gradient-2"></linearGradient> <linearGradient id="linear-gradient-24" x1="-0.82" y1="21.23" x2="49.43" y2="19.15" xlink:href="#linear-gradient-2"></linearGradient> <linearGradient id="linear-gradient-25" x1="-0.78" y1="22.2" x2="49.47" y2="20.11" xlink:href="#linear-gradient-2"></linearGradient> <linearGradient id="linear-gradient-26" x1="-0.79" y1="22.05" x2="49.46" y2="19.96" xlink:href="#linear-gradient-2"></linearGradient> <linearGradient id="linear-gradient-27" x1="-0.79" y1="21.87" x2="49.46" y2="19.79" xlink:href="#linear-gradient-2"></linearGradient> <linearGradient id="linear-gradient-28" x1="-0.74" y1="23.11" x2="49.51" y2="21.03" xlink:href="#linear-gradient-2"></linearGradient> <linearGradient id="linear-gradient-29" x1="-1.44" y1="6.18" x2="48.81" y2="4.09" xlink:href="#linear-gradient-2"></linearGradient> <linearGradient id="linear-gradient-30" x1="-1.45" y1="6.04" x2="48.8" y2="3.95" xlink:href="#linear-gradient-2"></linearGradient> <linearGradient id="linear-gradient-31" x1="-1.41" y1="7.08" x2="48.84" y2="4.99" xlink:href="#linear-gradient-2"></linearGradient> <linearGradient id="linear-gradient-32" x1="-1.37" y1="8" x2="48.88" y2="5.92" xlink:href="#linear-gradient-2"></linearGradient> <linearGradient id="linear-gradient-33" x1="-1.33" y1="8.96" x2="48.92" y2="6.87" xlink:href="#linear-gradient-2"></linearGradient> <linearGradient id="linear-gradient-34" x1="-1.29" y1="9.84" x2="48.96" y2="7.76" xlink:href="#linear-gradient-2"></linearGradient> <linearGradient id="linear-gradient-35" x1="-1.25" y1="10.8" x2="49" y2="8.71" xlink:href="#linear-gradient-2"></linearGradient> <linearGradient id="linear-gradient-36" x1="-1.26" y1="10.5" x2="48.99" y2="8.42" xlink:href="#linear-gradient-2"></linearGradient> <linearGradient id="linear-gradient-37" x1="-1.21" y1="11.77" x2="49.04" y2="9.68" xlink:href="#linear-gradient-2"></linearGradient> <linearGradient id="linear-gradient-38" x1="-0.8" y1="21.62" x2="49.45" y2="19.53" xlink:href="#linear-gradient-2"></linearGradient> <linearGradient id="linear-gradient-39" x1="-1.48" y1="5.41" x2="48.77" y2="3.33" xlink:href="#linear-gradient-2"></linearGradient> <linearGradient id="linear-gradient-40" x1="-1.48" y1="5.36" x2="48.77" y2="3.28" xlink:href="#linear-gradient-2"></linearGradient> <linearGradient id="linear-gradient-41" x1="-1.48" y1="5.32" x2="48.77" y2="3.23" xlink:href="#linear-gradient-2"></linearGradient> <linearGradient id="linear-gradient-42" x1="-1.48" y1="5.28" x2="48.77" y2="3.19" xlink:href="#linear-gradient-2"></linearGradient> <linearGradient id="linear-gradient-43" x1="-1.34" y1="8.75" x2="48.91" y2="6.66" xlink:href="#linear-gradient-2"></linearGradient> <linearGradient id="linear-gradient-44" x1="-1.34" y1="8.65" x2="48.91" y2="6.56" xlink:href="#linear-gradient-2"></linearGradient> <linearGradient id="linear-gradient-45" x1="-1.31" y1="9.45" x2="48.94" y2="7.37" xlink:href="#linear-gradient-2"></linearGradient> <linearGradient id="linear-gradient-46" x1="-1.31" y1="9.37" x2="48.94" y2="7.28" xlink:href="#linear-gradient-2"></linearGradient> <linearGradient id="linear-gradient-47" x1="-1.32" y1="9.26" x2="48.93" y2="7.18" xlink:href="#linear-gradient-2"></linearGradient> <linearGradient id="linear-gradient-48" x1="-1.34" y1="8.78" x2="48.91" y2="6.7" xlink:href="#linear-gradient-2"></linearGradient> <linearGradient id="linear-gradient-49" x1="-1.31" y1="9.5" x2="48.94" y2="7.41" xlink:href="#linear-gradient-2"></linearGradient> <linearGradient id="linear-gradient-50" x1="-1.28" y1="10.19" x2="48.97" y2="8.11" xlink:href="#linear-gradient-2"></linearGradient> <linearGradient id="linear-gradient-51" x1="-1.28" y1="10.16" x2="48.97" y2="8.08" xlink:href="#linear-gradient-2"></linearGradient> <linearGradient id="linear-gradient-52" x1="-1.28" y1="10.09" x2="48.97" y2="8" xlink:href="#linear-gradient-2"></linearGradient> <linearGradient id="linear-gradient-53" x1="-1.25" y1="10.91" x2="49" y2="8.83" xlink:href="#linear-gradient-2"></linearGradient> <linearGradient id="linear-gradient-54" x1="-1.25" y1="10.87" x2="49" y2="8.79" xlink:href="#linear-gradient-2"></linearGradient> <linearGradient id="linear-gradient-55" x1="-1.25" y1="10.79" x2="49" y2="8.7" xlink:href="#linear-gradient-2"></linearGradient> <linearGradient id="linear-gradient-56" x1="-1.22" y1="11.61" x2="49.03" y2="9.53" xlink:href="#linear-gradient-2"></linearGradient> <linearGradient id="linear-gradient-57" x1="-1.22" y1="11.58" x2="49.03" y2="9.5" xlink:href="#linear-gradient-2"></linearGradient> <linearGradient id="linear-gradient-58" x1="-1.22" y1="11.52" x2="49.03" y2="9.43" xlink:href="#linear-gradient-2"></linearGradient> <linearGradient id="linear-gradient-59" x1="-1.19" y1="12.33" x2="49.06" y2="10.25" xlink:href="#linear-gradient-2"></linearGradient> <linearGradient id="linear-gradient-60" x1="-1.13" y1="13.76" x2="49.12" y2="11.68" xlink:href="#linear-gradient-2"></linearGradient> <linearGradient id="linear-gradient-61" x1="-1.19" y1="12.3" x2="49.06" y2="10.21" xlink:href="#linear-gradient-2"></linearGradient> <linearGradient id="linear-gradient-62" x1="-1.13" y1="13.72" x2="49.12" y2="11.64" xlink:href="#linear-gradient-2"></linearGradient> <linearGradient id="linear-gradient-63" x1="-1.19" y1="12.21" x2="49.06" y2="10.12" xlink:href="#linear-gradient-2"></linearGradient> <linearGradient id="linear-gradient-64" x1="-1.13" y1="13.64" x2="49.12" y2="11.56" xlink:href="#linear-gradient-2"></linearGradient> <linearGradient id="linear-gradient-65" x1="-1.14" y1="13.57" x2="49.11" y2="11.48" xlink:href="#linear-gradient-2"></linearGradient> <linearGradient id="linear-gradient-66" x1="-1.14" y1="13.5" x2="49.11" y2="11.42" xlink:href="#linear-gradient-2"></linearGradient> <linearGradient id="linear-gradient-67" x1="-1.15" y1="13.41" x2="49.11" y2="11.32" xlink:href="#linear-gradient-2"></linearGradient> <linearGradient id="linear-gradient-68" x1="-1.15" y1="13.32" x2="49.1" y2="11.24" xlink:href="#linear-gradient-2"></linearGradient> <linearGradient id="linear-gradient-69" x1="-1.16" y1="13.06" x2="49.09" y2="10.98" xlink:href="#linear-gradient-2"></linearGradient> <linearGradient id="linear-gradient-70" x1="-1.16" y1="12.95" x2="49.09" y2="10.87" xlink:href="#linear-gradient-2"></linearGradient> <linearGradient id="linear-gradient-71" x1="-1.17" y1="12.87" x2="49.08" y2="10.79" xlink:href="#linear-gradient-2"></linearGradient> <linearGradient id="linear-gradient-72" x1="-1.17" y1="12.81" x2="49.08" y2="10.73" xlink:href="#linear-gradient-2"></linearGradient> <linearGradient id="linear-gradient-73" x1="-1.17" y1="12.72" x2="49.08" y2="10.64" xlink:href="#linear-gradient-2"></linearGradient> <linearGradient id="linear-gradient-74" x1="-1.18" y1="12.64" x2="49.07" y2="10.56" xlink:href="#linear-gradient-2"></linearGradient> <linearGradient id="linear-gradient-75" x1="-0.75" y1="23" x2="49.5" y2="20.92" xlink:href="#linear-gradient-2"></linearGradient> <linearGradient id="linear-gradient-76" x1="-0.75" y1="22.88" x2="49.5" y2="20.79" xlink:href="#linear-gradient-2"></linearGradient> <linearGradient id="linear-gradient-77" x1="-0.75" y1="22.84" x2="49.5" y2="20.76" xlink:href="#linear-gradient-2"></linearGradient> </defs> <title>2</title> <g style="isolation: isolate"> <g id="Слой_2" data-name="Слой 2"> <g id="Layer_1" data-name="Layer 1"> <g> <g style="opacity: 0.21;mix-blend-mode: color-dodge"> <path d="M47.57,27.6a.57.57,0,0,1,0,.13.45.45,0,0,1-.06.12.3.3,0,0,1-.08.08.2.2,0,0,1-.11,0l-2.19.21L8.87,31.6l-2.45.24L3,32.16a.23.23,0,0,1-.14,0,.34.34,0,0,1-.11-.07A.31.31,0,0,1,2.64,32a.57.57,0,0,1,0-.14L0,2.38a.68.68,0,0,1,0-.14.34.34,0,0,1,.06-.12A.27.27,0,0,1,.18,2,.42.42,0,0,1,.31,2L44.64,0l.11,0,.1.07a.86.86,0,0,1,.07.1.28.28,0,0,1,0,.13l.32,3.23Z" style="fill: url(#linear-gradient)"></path> </g> <g style="opacity: 0.5;mix-blend-mode: screen"> <path d="M47.57,27.6a.57.57,0,0,1,0,.13.45.45,0,0,1-.06.12.3.3,0,0,1-.08.08.2.2,0,0,1-.11,0l-2.19.21L8.87,31.6l-2.45.24L3,32.16a.23.23,0,0,1-.14,0,.34.34,0,0,1-.11-.07A.31.31,0,0,1,2.64,32a.57.57,0,0,1,0-.14L0,2.38a.68.68,0,0,1,0-.14.34.34,0,0,1,.06-.12A.27.27,0,0,1,.18,2,.42.42,0,0,1,.31,2L44.64,0l.11,0,.1.07a.86.86,0,0,1,.07.1.28.28,0,0,1,0,.13l.32,3.23Z" style="fill: url(#radial-gradient)"></path> </g> <g> <polyline points="20.53 15.52 19.87 15.56 19.91 16.03 20.57 15.98 20.53 15.52" style="fill: url(#linear-gradient-2)"></polyline> <polyline points="20.61 16.45 19.95 16.5 19.99 16.96 20.65 16.91 20.61 16.45" style="fill: url(#linear-gradient-3)"></polyline> <polyline points="20.69 17.38 20.04 17.43 20.08 17.9 20.74 17.85 20.69 17.38" style="fill: url(#linear-gradient-4)"></polyline> <polyline points="20.78 18.32 20.12 18.37 20.16 18.83 20.82 18.78 20.78 18.32" style="fill: url(#linear-gradient-5)"></polyline> <polyline points="20.86 19.25 20.2 19.3 20.24 19.77 20.9 19.72 20.86 19.25" style="fill: url(#linear-gradient-6)"></polyline> <polyline points="25.64 18.88 24.98 18.93 25.02 19.4 25.68 19.35 25.64 18.88" style="fill: url(#linear-gradient-7)"></polyline> <polyline points="20.94 20.19 20.29 20.24 20.33 20.7 20.99 20.65 20.94 20.19" style="fill: url(#linear-gradient-8)"></polyline> <polyline points="21.03 21.12 20.37 21.17 20.41 21.64 21.07 21.59 21.03 21.12" style="fill: url(#linear-gradient-9)"></polyline> <polyline points="21.11 22.05 20.45 22.11 20.49 22.58 21.15 22.52 21.11 22.05" style="fill: url(#linear-gradient-10)"></polyline> <polyline points="29.82 4.74 29.16 4.79 29.2 5.26 29.86 5.2 29.82 4.74" style="fill: url(#linear-gradient-11)"></polyline> <polyline points="29.9 5.67 29.24 5.73 29.29 6.2 29.94 6.14 29.9 5.67" style="fill: url(#linear-gradient-12)"></polyline> <polyline points="29.99 6.61 29.33 6.66 29.37 7.13 30.03 7.08 29.99 6.61" style="fill: url(#linear-gradient-13)"></polyline> <polyline points="30.07 7.55 29.41 7.6 29.45 8.07 30.11 8.01 30.07 7.55" style="fill: url(#linear-gradient-14)"></polyline> <polyline points="30.15 8.48 29.49 8.54 29.54 9.01 30.2 8.95 30.15 8.48" style="fill: url(#linear-gradient-15)"></polyline> <polyline points="30.24 9.42 29.58 9.48 29.62 9.95 30.28 9.89 30.24 9.42" style="fill: url(#linear-gradient-16)"></polyline> <polyline points="30.32 10.36 29.66 10.42 29.7 10.89 30.36 10.83 30.32 10.36" style="fill: url(#linear-gradient-17)"></polyline> <polyline points="27.48 15.95 21.1 16.41 21.14 16.88 27.53 16.41 27.48 15.95" style="fill: url(#linear-gradient-18)"></polyline> <polyline points="30.29 15.74 27.92 15.91 27.96 16.38 30.33 16.2 30.29 15.74" style="fill: url(#linear-gradient-19)"></polyline> <polyline points="30.53 16.65 21.18 17.34 21.22 17.81 30.57 17.11 30.53 16.65" style="fill: url(#linear-gradient-20)"></polyline> <polyline points="22.75 18.17 21.27 18.28 21.31 18.74 22.79 18.63 22.75 18.17" style="fill: url(#linear-gradient-21)"></polyline> <polyline points="31.96 17.47 23.28 18.13 23.32 18.59 32 17.93 31.96 17.47" style="fill: url(#linear-gradient-22)"></polyline> <polyline points="24.48 18.97 21.35 19.21 21.39 19.68 24.52 19.44 24.48 18.97" style="fill: url(#linear-gradient-23)"></polyline> <polyline points="25.25 19.85 21.43 20.15 21.47 20.61 25.29 20.31 25.25 19.85" style="fill: url(#linear-gradient-24)"></polyline> <polyline points="23.75 20.9 21.52 21.08 21.56 21.55 23.79 21.37 23.75 20.9" style="fill: url(#linear-gradient-25)"></polyline> <polyline points="28.74 20.5 24.22 20.86 24.26 21.33 28.78 20.96 28.74 20.5" style="fill: url(#linear-gradient-26)"></polyline> <polyline points="32.82 20.17 29.16 20.47 29.2 20.93 32.86 20.63 32.82 20.17" style="fill: url(#linear-gradient-27)"></polyline> <polyline points="24.73 21.76 21.6 22.02 21.64 22.48 24.77 22.23 24.73 21.76" style="fill: url(#linear-gradient-28)"></polyline> <polyline points="33.65 4.42 30.31 4.7 30.35 5.16 33.69 4.88 33.65 4.42" style="fill: url(#linear-gradient-29)"></polyline> <polyline points="36.52 4.18 34.12 4.38 34.16 4.84 36.56 4.64 36.52 4.18" style="fill: url(#linear-gradient-30)"></polyline> <polyline points="35.36 5.21 30.39 5.63 30.43 6.1 35.41 5.67 35.36 5.21" style="fill: url(#linear-gradient-31)"></polyline> <polyline points="35.77 6.11 30.47 6.57 30.52 7.03 35.81 6.57 35.77 6.11" style="fill: url(#linear-gradient-32)"></polyline> <polyline points="34.99 7.11 30.56 7.5 30.6 7.97 35.03 7.58 34.99 7.11" style="fill: url(#linear-gradient-33)"></polyline> <polyline points="37.21 7.85 30.64 8.44 30.68 8.91 37.25 8.32 37.21 7.85" style="fill: url(#linear-gradient-34)"></polyline> <polyline points="36.24 8.87 30.72 9.37 30.77 9.84 36.28 9.34 36.24 8.87" style="fill: url(#linear-gradient-35)"></polyline> <polyline points="42.16 8.33 36.75 8.82 36.8 9.29 42.21 8.79 42.16 8.33" style="fill: url(#linear-gradient-36)"></polyline> <polyline points="35.13 9.91 30.81 10.31 30.85 10.78 35.17 10.38 35.13 9.91" style="fill: url(#linear-gradient-37)"></polyline> <polyline points="36.84 19.82 36.28 19.86 36.32 20.32 36.88 20.27 36.84 19.82" style="fill: url(#linear-gradient-38)"></polyline> <polyline points="9.53 4.71 5.07 4.93 5.11 5.38 9.57 5.16 9.53 4.71" style="fill: url(#linear-gradient-39)"></polyline> <polyline points="14.22 4.47 10.53 4.66 10.57 5.11 14.26 4.92 14.22 4.47" style="fill: url(#linear-gradient-40)"></polyline> <polyline points="20.08 4.18 15.78 4.39 15.82 4.84 20.13 4.62 20.08 4.18" style="fill: url(#linear-gradient-41)"></polyline> <polyline points="23.69 4 21.03 4.13 21.07 4.57 23.73 4.44 23.69 4" style="fill: url(#linear-gradient-42)"></polyline> <polyline points="7.31 8.14 4.32 8.31 4.36 8.76 7.36 8.59 7.31 8.14" style="fill: url(#linear-gradient-43)"></polyline> <polyline points="18.25 7.53 7.73 8.12 7.78 8.57 18.29 7.98 18.25 7.53" style="fill: url(#linear-gradient-44)"></polyline> <polyline points="9.16 8.75 4.38 9.02 4.42 9.47 9.2 9.2 9.16 8.75" style="fill: url(#linear-gradient-45)"></polyline> <polyline points="14.39 8.45 9.7 8.72 9.74 9.17 14.44 8.9 14.39 8.45" style="fill: url(#linear-gradient-46)"></polyline> <polyline points="22.62 7.99 14.92 8.42 14.96 8.87 22.66 8.43 22.62 7.99" style="fill: url(#linear-gradient-47)"></polyline> <polyline points="3.92 8.33 3.36 8.36 3.4 8.81 3.97 8.78 3.92 8.33" style="fill: url(#linear-gradient-48)"></polyline> <polyline points="3.99 9.04 3.43 9.07 3.47 9.53 4.03 9.5 3.99 9.04" style="fill: url(#linear-gradient-49)"></polyline> <polyline points="5.49 9.67 4.38 9.74 4.42 10.19 5.53 10.13 5.49 9.67" style="fill: url(#linear-gradient-50)"></polyline> <polyline points="7.34 9.57 5.88 9.65 5.92 10.1 7.38 10.02 7.34 9.57" style="fill: url(#linear-gradient-51)"></polyline> <polyline points="14.77 9.14 7.74 9.54 7.79 9.99 14.81 9.58 14.77 9.14" style="fill: url(#linear-gradient-52)"></polyline> <polyline points="5 10.42 4.44 10.45 4.48 10.9 5.04 10.87 5 10.42" style="fill: url(#linear-gradient-53)"></polyline> <polyline points="8.35 10.22 5.38 10.39 5.42 10.85 8.39 10.67 8.35 10.22" style="fill: url(#linear-gradient-54)"></polyline> <polyline points="14.6 9.85 8.79 10.19 8.83 10.64 14.64 10.3 14.6 9.85" style="fill: url(#linear-gradient-55)"></polyline> <polyline points="6.15 11.06 4.51 11.16 4.55 11.62 6.2 11.52 6.15 11.06" style="fill: url(#linear-gradient-56)"></polyline> <polyline points="7.7 10.97 6.58 11.04 6.62 11.49 7.74 11.43 7.7 10.97" style="fill: url(#linear-gradient-57)"></polyline> <polyline points="12.87 10.66 8.16 10.95 8.2 11.4 12.91 11.11 12.87 10.66" style="fill: url(#linear-gradient-58)"></polyline> <polyline points="5.69 11.81 4.57 11.88 4.61 12.33 5.73 12.26 5.69 11.81" style="fill: url(#linear-gradient-59)"></polyline> <polyline points="5.82 13.23 4.7 13.31 4.74 13.76 5.86 13.69 5.82 13.23" style="fill: url(#linear-gradient-60)"></polyline> <polyline points="7.77 11.68 6.08 11.79 6.13 12.24 7.81 12.13 7.77 11.68" style="fill: url(#linear-gradient-61)"></polyline> <polyline points="7.9 13.1 6.22 13.21 6.26 13.66 7.94 13.56 7.9 13.1" style="fill: url(#linear-gradient-62)"></polyline> <polyline points="14.85 11.25 8.22 11.65 8.27 12.1 14.89 11.69 14.85 11.25" style="fill: url(#linear-gradient-63)"></polyline> <polyline points="13.25 12.76 8.36 13.07 8.4 13.53 13.29 13.21 13.25 12.76" style="fill: url(#linear-gradient-64)"></polyline> <polyline points="14.45 12.69 13.66 12.73 13.7 13.19 14.49 13.13 14.45 12.69" style="fill: url(#linear-gradient-65)"></polyline> <polyline points="18.71 12.41 14.83 12.66 14.87 13.11 18.75 12.86 18.71 12.41" style="fill: url(#linear-gradient-66)"></polyline> <polyline points="21.71 12.22 20.53 12.3 20.57 12.74 21.76 12.67 21.71 12.22" style="fill: url(#linear-gradient-67)"></polyline> <polyline points="25.34 11.99 24.17 12.07 24.21 12.51 25.38 12.43 25.34 11.99" style="fill: url(#linear-gradient-68)"></polyline> <polyline points="5.75 12.53 4.64 12.6 4.68 13.06 5.79 12.99 5.75 12.53" style="fill: url(#linear-gradient-69)"></polyline> <polyline points="13.19 12.07 7.07 12.45 7.11 12.9 13.23 12.52 13.19 12.07" style="fill: url(#linear-gradient-70)"></polyline> <polyline points="14.39 11.99 13.59 12.04 13.63 12.49 14.43 12.44 14.39 11.99" style="fill: url(#linear-gradient-71)"></polyline> <polyline points="18.64 11.73 14.77 11.97 14.81 12.42 18.68 12.17 18.64 11.73" style="fill: url(#linear-gradient-72)"></polyline> <polyline points="21.65 11.54 20.47 11.61 20.51 12.06 21.69 11.98 21.65 11.54" style="fill: url(#linear-gradient-73)"></polyline> <polyline points="25.27 11.31 24.1 11.38 24.15 11.83 25.32 11.75 25.27 11.31" style="fill: url(#linear-gradient-74)"></polyline> <g> <polyline points="9.4 20.03 5.86 22.84 9.88 25.12 9.74 23.66 7.92 22.69 9.54 21.48 9.4 20.03" style="fill: url(#linear-gradient-75)"></polyline> <polyline points="14.62 16.26 13.54 16.33 10.86 28.37 11.95 28.29 14.62 16.26" style="fill: url(#linear-gradient-76)"></polyline> <polyline points="15.25 19.63 15.38 21.07 17.17 22.05 15.58 23.25 15.72 24.7 19.18 21.91 15.25 19.63" style="fill: url(#linear-gradient-77)"></polyline> </g> </g> </g> </g> </g> </g> </svg> 