<?xml version="1.0" encoding="UTF-8"?> <svg xmlns="http://www.w3.org/2000/svg" xmlns:xlink="http://www.w3.org/1999/xlink" width="79.73" height="57.61" viewBox="0 0 79.73 57.61"> <defs> <linearGradient id="linear-gradient" x1="-8.42" y1="16.55" x2="80.58" y2="44.3" gradientUnits="userSpaceOnUse"> <stop offset="0" stop-color="#6cf6ff"></stop> <stop offset="0.01" stop-color="#6af2fc"></stop> <stop offset="0.3" stop-color="#459eb5"></stop> <stop offset="0.55" stop-color="#275a7c"></stop> <stop offset="0.75" stop-color="#122a53"></stop> <stop offset="0.91" stop-color="#050c3a"></stop> <stop offset="1" stop-color="#000131"></stop> </linearGradient> <linearGradient id="linear-gradient-2" x1="0.86" y1="5.42" x2="77.86" y2="9.67" gradientUnits="userSpaceOnUse"> <stop offset="0" stop-color="#a5ffff"></stop> <stop offset="0.29" stop-color="#99fdff"></stop> <stop offset="0.83" stop-color="#78f8ff"></stop> <stop offset="1" stop-color="#6cf6ff"></stop> </linearGradient> <linearGradient id="linear-gradient-3" x1="0.8" y1="6.55" x2="77.8" y2="10.8" xlink:href="#linear-gradient-2"></linearGradient> <linearGradient id="linear-gradient-4" x1="0.8" y1="6.55" x2="77.8" y2="10.8" xlink:href="#linear-gradient-2"></linearGradient> <linearGradient id="linear-gradient-5" x1="0.49" y1="12.22" x2="77.49" y2="16.47" xlink:href="#linear-gradient-2"></linearGradient> <linearGradient id="linear-gradient-6" x1="0.42" y1="13.36" x2="77.43" y2="17.61" xlink:href="#linear-gradient-2"></linearGradient> <linearGradient id="linear-gradient-7" x1="0.36" y1="14.5" x2="77.36" y2="18.75" xlink:href="#linear-gradient-2"></linearGradient> <linearGradient id="linear-gradient-8" x1="0.3" y1="15.62" x2="77.3" y2="19.87" xlink:href="#linear-gradient-2"></linearGradient> <linearGradient id="linear-gradient-9" x1="0.24" y1="16.75" x2="77.23" y2="21" xlink:href="#linear-gradient-2"></linearGradient> <linearGradient id="linear-gradient-10" x1="0.17" y1="17.89" x2="77.18" y2="22.14" xlink:href="#linear-gradient-2"></linearGradient> <linearGradient id="linear-gradient-11" x1="0.11" y1="19.03" x2="77.11" y2="23.28" xlink:href="#linear-gradient-2"></linearGradient> <linearGradient id="linear-gradient-12" x1="0.05" y1="20.17" x2="77.05" y2="24.42" xlink:href="#linear-gradient-2"></linearGradient> <linearGradient id="linear-gradient-13" x1="-0.02" y1="21.31" x2="76.99" y2="25.56" xlink:href="#linear-gradient-2"></linearGradient> <linearGradient id="linear-gradient-14" x1="-0.08" y1="22.45" x2="76.92" y2="26.7" xlink:href="#linear-gradient-2"></linearGradient> <linearGradient id="linear-gradient-15" x1="-0.14" y1="23.59" x2="76.86" y2="27.84" xlink:href="#linear-gradient-2"></linearGradient> <linearGradient id="linear-gradient-16" x1="-0.2" y1="24.73" x2="76.79" y2="28.98" xlink:href="#linear-gradient-2"></linearGradient> <linearGradient id="linear-gradient-17" x1="-0.27" y1="25.88" x2="76.73" y2="30.13" xlink:href="#linear-gradient-2"></linearGradient> <linearGradient id="linear-gradient-18" x1="-0.33" y1="27.02" x2="76.67" y2="31.27" xlink:href="#linear-gradient-2"></linearGradient> <linearGradient id="linear-gradient-19" x1="-0.32" y1="26.81" x2="76.68" y2="31.06" xlink:href="#linear-gradient-2"></linearGradient> <linearGradient id="linear-gradient-20" x1="-0.39" y1="28.17" x2="76.6" y2="32.42" xlink:href="#linear-gradient-2"></linearGradient> <linearGradient id="linear-gradient-21" x1="-0.46" y1="29.31" x2="76.55" y2="33.56" xlink:href="#linear-gradient-2"></linearGradient> <linearGradient id="linear-gradient-22" x1="-0.52" y1="30.46" x2="76.48" y2="34.71" xlink:href="#linear-gradient-2"></linearGradient> <linearGradient id="linear-gradient-23" x1="-0.58" y1="31.61" x2="76.42" y2="35.86" xlink:href="#linear-gradient-2"></linearGradient> <linearGradient id="linear-gradient-24" x1="-0.65" y1="32.75" x2="76.36" y2="37" xlink:href="#linear-gradient-2"></linearGradient> <linearGradient id="linear-gradient-25" x1="-0.71" y1="33.9" x2="76.29" y2="38.15" xlink:href="#linear-gradient-2"></linearGradient> <linearGradient id="linear-gradient-26" x1="-0.77" y1="35.05" x2="76.23" y2="39.3" xlink:href="#linear-gradient-2"></linearGradient> <linearGradient id="linear-gradient-27" x1="-0.84" y1="36.2" x2="76.16" y2="40.45" xlink:href="#linear-gradient-2"></linearGradient> <linearGradient id="linear-gradient-28" x1="-0.9" y1="37.36" x2="76.1" y2="41.61" xlink:href="#linear-gradient-2"></linearGradient> <linearGradient id="linear-gradient-29" x1="-0.96" y1="38.51" x2="76.03" y2="42.76" xlink:href="#linear-gradient-2"></linearGradient> <linearGradient id="linear-gradient-30" x1="0.74" y1="7.68" x2="77.74" y2="11.93" xlink:href="#linear-gradient-2"></linearGradient> <linearGradient id="linear-gradient-31" x1="0.67" y1="8.8" x2="77.68" y2="13.05" xlink:href="#linear-gradient-2"></linearGradient> <linearGradient id="linear-gradient-32" x1="0.61" y1="9.94" x2="77.61" y2="14.19" xlink:href="#linear-gradient-2"></linearGradient> <linearGradient id="linear-gradient-33" x1="0.61" y1="9.92" x2="77.61" y2="14.17" xlink:href="#linear-gradient-2"></linearGradient> <linearGradient id="linear-gradient-34" x1="0.55" y1="11.06" x2="77.55" y2="15.31" xlink:href="#linear-gradient-2"></linearGradient> <linearGradient id="linear-gradient-35" x1="0.49" y1="12.2" x2="77.49" y2="16.45" xlink:href="#linear-gradient-2"></linearGradient> <linearGradient id="linear-gradient-36" x1="0.42" y1="13.34" x2="77.42" y2="17.59" xlink:href="#linear-gradient-2"></linearGradient> <linearGradient id="linear-gradient-37" x1="0.36" y1="14.46" x2="77.36" y2="18.71" xlink:href="#linear-gradient-2"></linearGradient> <linearGradient id="linear-gradient-38" x1="0.3" y1="15.59" x2="77.3" y2="19.84" xlink:href="#linear-gradient-2"></linearGradient> <linearGradient id="linear-gradient-39" x1="0.3" y1="15.55" x2="77.3" y2="19.8" xlink:href="#linear-gradient-2"></linearGradient> <linearGradient id="linear-gradient-40" x1="0.24" y1="16.72" x2="77.23" y2="20.97" xlink:href="#linear-gradient-2"></linearGradient> <linearGradient id="linear-gradient-41" x1="0.17" y1="17.86" x2="77.17" y2="22.11" xlink:href="#linear-gradient-2"></linearGradient> <linearGradient id="linear-gradient-42" x1="0.24" y1="16.66" x2="77.24" y2="20.91" xlink:href="#linear-gradient-2"></linearGradient> <linearGradient id="linear-gradient-43" x1="0.25" y1="16.59" x2="77.24" y2="20.84" xlink:href="#linear-gradient-2"></linearGradient> <linearGradient id="linear-gradient-44" x1="0.18" y1="17.78" x2="77.18" y2="22.03" xlink:href="#linear-gradient-2"></linearGradient> <linearGradient id="linear-gradient-45" x1="0.18" y1="17.7" x2="77.18" y2="21.95" xlink:href="#linear-gradient-2"></linearGradient> <linearGradient id="linear-gradient-46" x1="0.11" y1="18.96" x2="77.11" y2="23.21" xlink:href="#linear-gradient-2"></linearGradient> <linearGradient id="linear-gradient-47" x1="0.05" y1="20.08" x2="77.05" y2="24.33" xlink:href="#linear-gradient-2"></linearGradient> <linearGradient id="linear-gradient-48" x1="-0.01" y1="21.24" x2="76.99" y2="25.49" xlink:href="#linear-gradient-2"></linearGradient> <linearGradient id="linear-gradient-49" x1="-0.01" y1="21.14" x2="76.99" y2="25.39" xlink:href="#linear-gradient-2"></linearGradient> <linearGradient id="linear-gradient-50" x1="-0.07" y1="22.28" x2="76.93" y2="26.53" xlink:href="#linear-gradient-2"></linearGradient> <linearGradient id="linear-gradient-51" x1="-0.13" y1="23.45" x2="76.87" y2="27.7" xlink:href="#linear-gradient-2"></linearGradient> <linearGradient id="linear-gradient-52" x1="-0.12" y1="23.27" x2="76.88" y2="27.52" xlink:href="#linear-gradient-2"></linearGradient> <linearGradient id="linear-gradient-53" x1="-0.19" y1="24.52" x2="76.81" y2="28.77" xlink:href="#linear-gradient-2"></linearGradient> <linearGradient id="linear-gradient-54" x1="-0.26" y1="25.81" x2="76.74" y2="30.06" xlink:href="#linear-gradient-2"></linearGradient> <linearGradient id="linear-gradient-55" x1="-0.25" y1="25.58" x2="76.75" y2="29.83" xlink:href="#linear-gradient-2"></linearGradient> <linearGradient id="linear-gradient-56" x1="-0.33" y1="26.92" x2="76.68" y2="31.17" xlink:href="#linear-gradient-2"></linearGradient> <linearGradient id="linear-gradient-57" x1="-0.39" y1="28.04" x2="76.61" y2="32.29" xlink:href="#linear-gradient-2"></linearGradient> <linearGradient id="linear-gradient-58" x1="-0.45" y1="29.22" x2="76.55" y2="33.47" xlink:href="#linear-gradient-2"></linearGradient> <linearGradient id="linear-gradient-59" x1="-0.44" y1="29.03" x2="76.56" y2="33.28" xlink:href="#linear-gradient-2"></linearGradient> <linearGradient id="linear-gradient-60" x1="-0.43" y1="28.81" x2="76.57" y2="33.06" xlink:href="#linear-gradient-2"></linearGradient> <linearGradient id="linear-gradient-61" x1="-0.51" y1="30.34" x2="76.49" y2="34.59" xlink:href="#linear-gradient-2"></linearGradient> <linearGradient id="linear-gradient-62" x1="-0.58" y1="31.47" x2="76.42" y2="35.72" xlink:href="#linear-gradient-2"></linearGradient> <linearGradient id="linear-gradient-63" x1="-0.57" y1="31.29" x2="76.43" y2="35.54" xlink:href="#linear-gradient-2"></linearGradient> <linearGradient id="linear-gradient-64" x1="-0.64" y1="32.57" x2="76.36" y2="36.82" xlink:href="#linear-gradient-2"></linearGradient> <linearGradient id="linear-gradient-65" x1="-0.7" y1="33.7" x2="76.3" y2="37.95" xlink:href="#linear-gradient-2"></linearGradient> <linearGradient id="linear-gradient-66" x1="-0.76" y1="34.87" x2="76.24" y2="39.12" xlink:href="#linear-gradient-2"></linearGradient> <linearGradient id="linear-gradient-67" x1="-0.82" y1="35.94" x2="76.18" y2="40.19" xlink:href="#linear-gradient-2"></linearGradient> <linearGradient id="linear-gradient-68" x1="-0.89" y1="37.12" x2="76.11" y2="41.37" xlink:href="#linear-gradient-2"></linearGradient> <linearGradient id="linear-gradient-69" x1="-0.87" y1="36.72" x2="76.13" y2="40.97" xlink:href="#linear-gradient-2"></linearGradient> <linearGradient id="linear-gradient-70" x1="-0.95" y1="38.3" x2="76.05" y2="42.55" xlink:href="#linear-gradient-2"></linearGradient> <linearGradient id="linear-gradient-71" x1="0.69" y1="8.55" x2="77.69" y2="12.8" xlink:href="#linear-gradient-2"></linearGradient> <linearGradient id="linear-gradient-72" x1="0.81" y1="6.28" x2="77.81" y2="10.53" xlink:href="#linear-gradient-2"></linearGradient> <linearGradient id="linear-gradient-73" x1="0.81" y1="6.29" x2="77.81" y2="10.54" xlink:href="#linear-gradient-2"></linearGradient> <linearGradient id="linear-gradient-74" x1="0.81" y1="6.3" x2="77.81" y2="10.55" xlink:href="#linear-gradient-2"></linearGradient> <linearGradient id="linear-gradient-75" x1="0.81" y1="6.31" x2="77.81" y2="10.56" xlink:href="#linear-gradient-2"></linearGradient> <linearGradient id="linear-gradient-76" x1="0.81" y1="6.32" x2="77.81" y2="10.57" xlink:href="#linear-gradient-2"></linearGradient> <linearGradient id="linear-gradient-77" x1="0.81" y1="6.33" x2="77.81" y2="10.58" xlink:href="#linear-gradient-2"></linearGradient> <linearGradient id="linear-gradient-78" x1="0.81" y1="6.34" x2="77.81" y2="10.59" xlink:href="#linear-gradient-2"></linearGradient> <linearGradient id="linear-gradient-79" x1="0.81" y1="6.35" x2="77.81" y2="10.6" xlink:href="#linear-gradient-2"></linearGradient> <linearGradient id="linear-gradient-80" x1="0.64" y1="9.41" x2="77.64" y2="13.66" xlink:href="#linear-gradient-2"></linearGradient> <linearGradient id="linear-gradient-81" x1="0.59" y1="10.27" x2="77.59" y2="14.52" xlink:href="#linear-gradient-2"></linearGradient> <linearGradient id="linear-gradient-82" x1="0.6" y1="10.22" x2="77.6" y2="14.47" xlink:href="#linear-gradient-2"></linearGradient> <linearGradient id="linear-gradient-83" x1="0.55" y1="11.12" x2="77.55" y2="15.37" xlink:href="#linear-gradient-2"></linearGradient> <linearGradient id="linear-gradient-84" x1="0.55" y1="11.07" x2="77.55" y2="15.32" xlink:href="#linear-gradient-2"></linearGradient> <linearGradient id="linear-gradient-85" x1="0.55" y1="11.01" x2="77.55" y2="15.26" xlink:href="#linear-gradient-2"></linearGradient> <linearGradient id="linear-gradient-86" x1="0.69" y1="8.56" x2="77.69" y2="12.81" xlink:href="#linear-gradient-2"></linearGradient> <linearGradient id="linear-gradient-87" x1="0.64" y1="9.42" x2="77.64" y2="13.67" xlink:href="#linear-gradient-2"></linearGradient> <linearGradient id="linear-gradient-88" x1="0.69" y1="8.48" x2="77.69" y2="12.73" xlink:href="#linear-gradient-2"></linearGradient> <linearGradient id="linear-gradient-89" x1="0.64" y1="9.3" x2="77.65" y2="13.55" xlink:href="#linear-gradient-2"></linearGradient> <linearGradient id="linear-gradient-90" x1="0.6" y1="10.09" x2="77.6" y2="14.34" xlink:href="#linear-gradient-2"></linearGradient> <linearGradient id="linear-gradient-91" x1="0.6" y1="10.08" x2="77.6" y2="14.33" xlink:href="#linear-gradient-2"></linearGradient> <linearGradient id="linear-gradient-92" x1="0.6" y1="10.11" x2="77.6" y2="14.35" xlink:href="#linear-gradient-2"></linearGradient> <linearGradient id="linear-gradient-93" x1="0.56" y1="10.92" x2="77.56" y2="15.17" xlink:href="#linear-gradient-2"></linearGradient> <linearGradient id="linear-gradient-94" x1="0.56" y1="10.9" x2="77.56" y2="15.15" xlink:href="#linear-gradient-2"></linearGradient> <linearGradient id="linear-gradient-95" x1="0.56" y1="10.88" x2="77.56" y2="15.13" xlink:href="#linear-gradient-2"></linearGradient> <linearGradient id="linear-gradient-96" x1="0.51" y1="11.71" x2="77.51" y2="15.96" xlink:href="#linear-gradient-2"></linearGradient> <linearGradient id="linear-gradient-97" x1="0.52" y1="11.68" x2="77.52" y2="15.93" xlink:href="#linear-gradient-2"></linearGradient> <linearGradient id="linear-gradient-98" x1="0.51" y1="11.73" x2="77.51" y2="15.98" xlink:href="#linear-gradient-2"></linearGradient> <linearGradient id="linear-gradient-99" x1="0.46" y1="12.55" x2="77.47" y2="16.8" xlink:href="#linear-gradient-2"></linearGradient> <linearGradient id="linear-gradient-100" x1="0.47" y1="12.53" x2="77.47" y2="16.78" xlink:href="#linear-gradient-2"></linearGradient> <linearGradient id="linear-gradient-101" x1="0.47" y1="12.5" x2="77.47" y2="16.75" xlink:href="#linear-gradient-2"></linearGradient> <linearGradient id="linear-gradient-102" x1="0.43" y1="13.31" x2="77.43" y2="17.56" xlink:href="#linear-gradient-2"></linearGradient> <linearGradient id="linear-gradient-103" x1="0.42" y1="13.36" x2="77.42" y2="17.61" xlink:href="#linear-gradient-2"></linearGradient> <linearGradient id="linear-gradient-104" x1="0.42" y1="13.34" x2="77.42" y2="17.59" xlink:href="#linear-gradient-2"></linearGradient> <linearGradient id="linear-gradient-105" x1="0.38" y1="14.17" x2="77.38" y2="18.42" xlink:href="#linear-gradient-2"></linearGradient> <linearGradient id="linear-gradient-106" x1="0.34" y1="14.99" x2="77.33" y2="19.24" xlink:href="#linear-gradient-2"></linearGradient> <linearGradient id="linear-gradient-107" x1="0.33" y1="14.97" x2="77.33" y2="19.22" xlink:href="#linear-gradient-2"></linearGradient> <linearGradient id="linear-gradient-108" x1="0.34" y1="14.93" x2="77.34" y2="19.18" xlink:href="#linear-gradient-2"></linearGradient> <linearGradient id="linear-gradient-109" x1="0.29" y1="15.8" x2="77.29" y2="20.05" xlink:href="#linear-gradient-2"></linearGradient> <linearGradient id="linear-gradient-110" x1="0.24" y1="16.62" x2="77.24" y2="20.87" xlink:href="#linear-gradient-2"></linearGradient> <linearGradient id="linear-gradient-111" x1="0.2" y1="17.43" x2="77.2" y2="21.68" xlink:href="#linear-gradient-2"></linearGradient> <linearGradient id="linear-gradient-112" x1="0.15" y1="18.25" x2="77.15" y2="22.5" xlink:href="#linear-gradient-2"></linearGradient> <linearGradient id="linear-gradient-113" x1="0.24" y1="16.59" x2="77.24" y2="20.84" xlink:href="#linear-gradient-2"></linearGradient> <linearGradient id="linear-gradient-114" x1="0.25" y1="16.57" x2="77.25" y2="20.82" xlink:href="#linear-gradient-2"></linearGradient> <linearGradient id="linear-gradient-115" x1="0.2" y1="17.4" x2="77.2" y2="21.65" xlink:href="#linear-gradient-2"></linearGradient> <linearGradient id="linear-gradient-116" x1="0.21" y1="17.37" x2="77.2" y2="21.62" xlink:href="#linear-gradient-2"></linearGradient> <linearGradient id="linear-gradient-117" x1="0.16" y1="18.19" x2="77.16" y2="22.44" xlink:href="#linear-gradient-2"></linearGradient> <linearGradient id="linear-gradient-118" x1="0.16" y1="18.14" x2="77.16" y2="22.39" xlink:href="#linear-gradient-2"></linearGradient> <linearGradient id="linear-gradient-119" x1="0.15" y1="18.22" x2="77.16" y2="22.47" xlink:href="#linear-gradient-2"></linearGradient> <linearGradient id="linear-gradient-120" x1="0.11" y1="19.06" x2="77.11" y2="23.31" xlink:href="#linear-gradient-2"></linearGradient> <linearGradient id="linear-gradient-121" x1="0.06" y1="19.89" x2="77.06" y2="24.14" xlink:href="#linear-gradient-2"></linearGradient> <linearGradient id="linear-gradient-122" x1="0.02" y1="20.7" x2="77.02" y2="24.95" xlink:href="#linear-gradient-2"></linearGradient> <linearGradient id="linear-gradient-123" x1="-0.03" y1="21.51" x2="76.97" y2="25.76" xlink:href="#linear-gradient-2"></linearGradient> <linearGradient id="linear-gradient-124" x1="-0.07" y1="22.33" x2="76.93" y2="26.58" xlink:href="#linear-gradient-2"></linearGradient> <linearGradient id="linear-gradient-125" x1="0.59" y1="10.28" x2="77.59" y2="14.53" xlink:href="#linear-gradient-2"></linearGradient> <linearGradient id="linear-gradient-126" x1="0.55" y1="11.14" x2="77.55" y2="15.39" xlink:href="#linear-gradient-2"></linearGradient> <linearGradient id="linear-gradient-127" x1="0.5" y1="11.99" x2="77.5" y2="16.24" xlink:href="#linear-gradient-2"></linearGradient> <linearGradient id="linear-gradient-128" x1="0.5" y1="11.98" x2="77.5" y2="16.23" xlink:href="#linear-gradient-2"></linearGradient> <linearGradient id="linear-gradient-129" x1="0.5" y1="11.93" x2="77.5" y2="16.18" xlink:href="#linear-gradient-2"></linearGradient> <linearGradient id="linear-gradient-130" x1="0.45" y1="12.86" x2="77.45" y2="17.11" xlink:href="#linear-gradient-2"></linearGradient> <linearGradient id="linear-gradient-131" x1="0.45" y1="12.83" x2="77.45" y2="17.08" xlink:href="#linear-gradient-2"></linearGradient> <linearGradient id="linear-gradient-132" x1="0.46" y1="12.77" x2="77.46" y2="17.02" xlink:href="#linear-gradient-2"></linearGradient> <linearGradient id="linear-gradient-133" x1="-0.17" y1="24.09" x2="76.83" y2="28.34" xlink:href="#linear-gradient-2"></linearGradient> <linearGradient id="linear-gradient-134" x1="-0.22" y1="24.92" x2="76.78" y2="29.17" xlink:href="#linear-gradient-2"></linearGradient> <linearGradient id="linear-gradient-135" x1="0.41" y1="13.71" x2="77.4" y2="17.96" xlink:href="#linear-gradient-2"></linearGradient> <linearGradient id="linear-gradient-136" x1="0.4" y1="13.68" x2="77.41" y2="17.93" xlink:href="#linear-gradient-2"></linearGradient> <linearGradient id="linear-gradient-137" x1="0.41" y1="13.63" x2="77.41" y2="17.88" xlink:href="#linear-gradient-2"></linearGradient> <linearGradient id="linear-gradient-138" x1="0.36" y1="14.57" x2="77.35" y2="18.82" xlink:href="#linear-gradient-2"></linearGradient> <linearGradient id="linear-gradient-139" x1="0.26" y1="16.3" x2="77.26" y2="20.55" xlink:href="#linear-gradient-2"></linearGradient> <linearGradient id="linear-gradient-140" x1="0.36" y1="14.54" x2="77.36" y2="18.79" xlink:href="#linear-gradient-2"></linearGradient> <linearGradient id="linear-gradient-141" x1="0.26" y1="16.26" x2="77.26" y2="20.51" xlink:href="#linear-gradient-2"></linearGradient> <linearGradient id="linear-gradient-142" x1="0.36" y1="14.47" x2="77.36" y2="18.72" xlink:href="#linear-gradient-2"></linearGradient> <linearGradient id="linear-gradient-143" x1="0.27" y1="16.18" x2="77.27" y2="20.43" xlink:href="#linear-gradient-2"></linearGradient> <linearGradient id="linear-gradient-144" x1="0.27" y1="16.12" x2="77.27" y2="20.37" xlink:href="#linear-gradient-2"></linearGradient> <linearGradient id="linear-gradient-145" x1="0.27" y1="16.06" x2="77.27" y2="20.31" xlink:href="#linear-gradient-2"></linearGradient> <linearGradient id="linear-gradient-146" x1="0.28" y1="15.97" x2="77.28" y2="20.22" xlink:href="#linear-gradient-2"></linearGradient> <linearGradient id="linear-gradient-147" x1="0.28" y1="15.9" x2="77.28" y2="20.15" xlink:href="#linear-gradient-2"></linearGradient> <linearGradient id="linear-gradient-148" x1="0.31" y1="15.45" x2="77.31" y2="19.7" xlink:href="#linear-gradient-2"></linearGradient> <linearGradient id="linear-gradient-149" x1="0.31" y1="15.36" x2="77.31" y2="19.61" xlink:href="#linear-gradient-2"></linearGradient> <linearGradient id="linear-gradient-150" x1="0.32" y1="15.28" x2="77.32" y2="19.53" xlink:href="#linear-gradient-2"></linearGradient> <linearGradient id="linear-gradient-151" x1="0.32" y1="15.24" x2="77.32" y2="19.49" xlink:href="#linear-gradient-2"></linearGradient> <linearGradient id="linear-gradient-152" x1="0.32" y1="15.15" x2="77.32" y2="19.41" xlink:href="#linear-gradient-2"></linearGradient> <linearGradient id="linear-gradient-153" x1="0.33" y1="15.09" x2="77.33" y2="19.34" xlink:href="#linear-gradient-2"></linearGradient> <linearGradient id="linear-gradient-154" x1="0.21" y1="17.15" x2="77.22" y2="21.4" xlink:href="#linear-gradient-2"></linearGradient> <linearGradient id="linear-gradient-155" x1="0.17" y1="18.01" x2="77.17" y2="22.26" xlink:href="#linear-gradient-2"></linearGradient> <linearGradient id="linear-gradient-156" x1="0.22" y1="17.11" x2="77.22" y2="21.36" xlink:href="#linear-gradient-2"></linearGradient> <linearGradient id="linear-gradient-157" x1="0.17" y1="17.97" x2="77.17" y2="22.22" xlink:href="#linear-gradient-2"></linearGradient> <linearGradient id="linear-gradient-158" x1="0.22" y1="17.08" x2="77.21" y2="21.33" xlink:href="#linear-gradient-2"></linearGradient> <linearGradient id="linear-gradient-159" x1="0.17" y1="17.94" x2="77.17" y2="22.19" xlink:href="#linear-gradient-2"></linearGradient> <linearGradient id="linear-gradient-160" x1="0.12" y1="18.85" x2="77.12" y2="23.1" xlink:href="#linear-gradient-2"></linearGradient> <linearGradient id="linear-gradient-161" x1="0.12" y1="18.8" x2="77.12" y2="23.05" xlink:href="#linear-gradient-2"></linearGradient> <linearGradient id="linear-gradient-162" x1="0.07" y1="19.69" x2="77.07" y2="23.94" xlink:href="#linear-gradient-2"></linearGradient> <linearGradient id="linear-gradient-163" x1="0.08" y1="19.61" x2="77.08" y2="23.86" xlink:href="#linear-gradient-2"></linearGradient> <linearGradient id="linear-gradient-164" x1="0.08" y1="19.54" x2="77.08" y2="23.79" xlink:href="#linear-gradient-2"></linearGradient> <linearGradient id="linear-gradient-165" x1="0.03" y1="20.51" x2="77.03" y2="24.76" xlink:href="#linear-gradient-2"></linearGradient> <linearGradient id="linear-gradient-166" x1="0.06" y1="19.84" x2="77.07" y2="24.09" xlink:href="#linear-gradient-2"></linearGradient> <linearGradient id="linear-gradient-167" x1="0.07" y1="19.78" x2="77.07" y2="24.03" xlink:href="#linear-gradient-2"></linearGradient> <linearGradient id="linear-gradient-168" x1="0.02" y1="20.64" x2="77.02" y2="24.89" xlink:href="#linear-gradient-2"></linearGradient> <linearGradient id="linear-gradient-169" x1="0.03" y1="20.55" x2="77.03" y2="24.8" xlink:href="#linear-gradient-2"></linearGradient> <linearGradient id="linear-gradient-170" x1="0.03" y1="20.48" x2="77.03" y2="24.73" xlink:href="#linear-gradient-2"></linearGradient> <linearGradient id="linear-gradient-171" x1="0" y1="21.12" x2="76.99" y2="25.37" xlink:href="#linear-gradient-2"></linearGradient> <linearGradient id="linear-gradient-172" x1="-0.05" y1="22.02" x2="76.95" y2="26.27" xlink:href="#linear-gradient-2"></linearGradient> <linearGradient id="linear-gradient-173" x1="-0.02" y1="21.4" x2="76.98" y2="25.65" xlink:href="#linear-gradient-2"></linearGradient> <linearGradient id="linear-gradient-174" x1="-0.01" y1="21.23" x2="76.99" y2="25.48" xlink:href="#linear-gradient-2"></linearGradient> <linearGradient id="linear-gradient-175" x1="-0.06" y1="22.17" x2="76.94" y2="26.42" xlink:href="#linear-gradient-2"></linearGradient> <linearGradient id="linear-gradient-176" x1="0.43" y1="13.17" x2="77.43" y2="17.42" xlink:href="#linear-gradient-2"></linearGradient> <linearGradient id="linear-gradient-177" x1="0.47" y1="12.45" x2="77.47" y2="16.7" xlink:href="#linear-gradient-2"></linearGradient> <linearGradient id="linear-gradient-178" x1="0.48" y1="12.39" x2="77.48" y2="16.64" xlink:href="#linear-gradient-2"></linearGradient> <linearGradient id="linear-gradient-179" x1="0.43" y1="13.23" x2="77.43" y2="17.48" xlink:href="#linear-gradient-2"></linearGradient> <linearGradient id="linear-gradient-180" x1="-0.02" y1="21.41" x2="76.98" y2="25.66" xlink:href="#linear-gradient-2"></linearGradient> <linearGradient id="linear-gradient-181" x1="-0.01" y1="21.29" x2="76.99" y2="25.54" xlink:href="#linear-gradient-2"></linearGradient> <linearGradient id="linear-gradient-182" x1="-0.01" y1="21.19" x2="76.99" y2="25.44" xlink:href="#linear-gradient-2"></linearGradient> <linearGradient id="linear-gradient-183" x1="-0.07" y1="22.23" x2="76.93" y2="26.48" xlink:href="#linear-gradient-2"></linearGradient> <linearGradient id="linear-gradient-184" x1="-0.12" y1="23.15" x2="76.88" y2="27.4" xlink:href="#linear-gradient-2"></linearGradient> <linearGradient id="linear-gradient-185" x1="-0.11" y1="23.02" x2="76.89" y2="27.27" xlink:href="#linear-gradient-2"></linearGradient> <linearGradient id="linear-gradient-186" x1="-0.1" y1="22.83" x2="76.9" y2="27.08" xlink:href="#linear-gradient-2"></linearGradient> </defs> <title>4</title> <g style="isolation: isolate"> <g id="Слой_2" data-name="Слой 2"> <g id="Layer_1" data-name="Layer 1"> <g> <path d="M1,0,78.21,5.3a.59.59,0,0,1,.56.58l1,48.45a.6.6,0,0,1-.58.6L.62,57.61A.6.6,0,0,1,0,57L.32.59A.6.6,0,0,1,1,0Z" style="opacity: 0.21;mix-blend-mode: color-dodge;fill: url(#linear-gradient)"></path> <g style="opacity: 0.5"> <polyline points="6.78 5.47 5 5.36 5 5.93 6.78 6.03 6.78 5.47" style="fill: url(#linear-gradient-2)"></polyline> <polyline points="7.92 6.66 5 6.5 5 7.06 7.92 7.23 7.92 6.66" style="fill: url(#linear-gradient-3)"></polyline> <polyline points="4.36 6.46 3.49 6.41 3.49 6.98 4.36 7.03 4.36 6.46" style="fill: url(#linear-gradient-4)"></polyline> <polyline points="4.33 12.15 3.47 12.11 3.46 12.67 4.33 12.71 4.33 12.15" style="fill: url(#linear-gradient-5)"></polyline> <polyline points="4.33 13.28 3.46 13.24 3.46 13.82 4.33 13.86 4.33 13.28" style="fill: url(#linear-gradient-6)"></polyline> <polyline points="4.32 14.42 3.46 14.38 3.45 14.96 4.32 14.99 4.32 14.42" style="fill: url(#linear-gradient-7)"></polyline> <polyline points="5.83 15.63 4.96 15.59 4.96 16.16 5.82 16.2 5.83 15.63" style="fill: url(#linear-gradient-8)"></polyline> <polyline points="5.82 16.77 4.96 16.73 4.96 17.3 5.82 17.34 5.82 16.77" style="fill: url(#linear-gradient-9)"></polyline> <polyline points="5.82 17.91 4.95 17.88 4.95 18.45 5.81 18.48 5.82 17.91" style="fill: url(#linear-gradient-10)"></polyline> <polyline points="5.81 19.05 4.95 19.02 4.95 19.59 5.81 19.62 5.81 19.05" style="fill: url(#linear-gradient-11)"></polyline> <polyline points="5.81 20.19 4.94 20.16 4.94 20.73 5.81 20.76 5.81 20.19" style="fill: url(#linear-gradient-12)"></polyline> <polyline points="5.8 21.33 4.94 21.31 4.94 21.88 5.8 21.9 5.8 21.33" style="fill: url(#linear-gradient-13)"></polyline> <polyline points="5.8 22.48 4.93 22.45 4.93 23.02 5.8 23.05 5.8 22.48" style="fill: url(#linear-gradient-14)"></polyline> <polyline points="5.79 23.62 4.93 23.59 4.93 24.17 5.79 24.19 5.79 23.62" style="fill: url(#linear-gradient-15)"></polyline> <polyline points="5.79 24.77 4.93 24.74 4.92 25.31 5.79 25.33 5.79 24.77" style="fill: url(#linear-gradient-16)"></polyline> <polyline points="5.79 25.91 4.92 25.89 4.92 26.46 5.78 26.48 5.79 25.91" style="fill: url(#linear-gradient-17)"></polyline> <polyline points="5.78 27.06 4.92 27.04 4.91 27.61 5.78 27.63 5.78 27.06" style="fill: url(#linear-gradient-18)"></polyline> <polyline points="12.03 27.2 11.18 27.18 11.18 27.74 12.03 27.76 12.03 27.2" style="fill: url(#linear-gradient-19)"></polyline> <polyline points="5.78 28.2 4.91 28.19 4.91 28.76 5.78 28.78 5.78 28.2" style="fill: url(#linear-gradient-20)"></polyline> <polyline points="5.77 29.35 4.91 29.33 4.9 29.91 5.77 29.93 5.77 29.35" style="fill: url(#linear-gradient-21)"></polyline> <polyline points="5.77 30.5 4.9 30.49 4.9 31.06 5.77 31.07 5.77 30.5" style="fill: url(#linear-gradient-22)"></polyline> <polyline points="5.76 31.65 4.9 31.64 4.89 32.21 5.76 32.23 5.76 31.65" style="fill: url(#linear-gradient-23)"></polyline> <polyline points="5.76 32.8 4.89 32.79 4.89 33.37 5.76 33.38 5.76 32.8" style="fill: url(#linear-gradient-24)"></polyline> <polyline points="5.75 33.95 4.89 33.94 4.89 34.52 5.75 34.52 5.75 33.95" style="fill: url(#linear-gradient-25)"></polyline> <polyline points="5.75 35.1 4.88 35.09 4.88 35.67 5.75 35.68 5.75 35.1" style="fill: url(#linear-gradient-26)"></polyline> <polyline points="5.75 36.26 4.88 36.25 4.88 36.83 5.74 36.83 5.75 36.26" style="fill: url(#linear-gradient-27)"></polyline> <polyline points="5.74 37.41 4.87 37.41 4.87 37.99 5.74 37.99 5.74 37.41" style="fill: url(#linear-gradient-28)"></polyline> <polyline points="5.74 38.56 4.87 38.56 4.87 39.14 5.74 39.14 5.74 38.56" style="fill: url(#linear-gradient-29)"></polyline> <polyline points="8.53 7.82 5 7.63 4.99 8.2 8.53 8.39 8.53 7.82" style="fill: url(#linear-gradient-30)"></polyline> <polyline points="10.63 9.06 4.99 8.77 4.99 9.33 10.63 9.62 10.63 9.06" style="fill: url(#linear-gradient-31)"></polyline> <polyline points="7.91 10.05 4.99 9.9 4.98 10.47 7.91 10.62 7.91 10.05" style="fill: url(#linear-gradient-32)"></polyline> <polyline points="10.1 10.16 8.52 10.08 8.52 10.65 10.1 10.73 10.1 10.16" style="fill: url(#linear-gradient-33)"></polyline> <polyline points="9.31 11.25 4.98 11.04 4.98 11.61 9.31 11.81 9.31 11.25" style="fill: url(#linear-gradient-34)"></polyline> <polyline points="8.71 12.35 4.98 12.18 4.97 12.74 8.71 12.91 8.71 12.35" style="fill: url(#linear-gradient-35)"></polyline> <polyline points="7.25 13.42 4.97 13.31 4.97 13.88 7.25 13.98 7.25 13.42" style="fill: url(#linear-gradient-36)"></polyline> <polyline points="7.89 14.58 4.97 14.45 4.96 15.02 7.89 15.15 7.89 14.58" style="fill: url(#linear-gradient-37)"></polyline> <polyline points="8.33 15.73 6.47 15.66 6.46 16.23 8.33 16.3 8.33 15.73" style="fill: url(#linear-gradient-38)"></polyline> <polyline points="11.81 15.88 8.93 15.76 8.93 16.32 11.81 16.44 11.81 15.88" style="fill: url(#linear-gradient-39)"></polyline> <polyline points="7.6 16.84 6.46 16.79 6.46 17.36 7.6 17.41 7.6 16.84" style="fill: url(#linear-gradient-40)"></polyline> <polyline points="7.59 17.98 6.46 17.93 6.46 18.5 7.59 18.54 7.59 17.98" style="fill: url(#linear-gradient-41)"></polyline> <polyline points="14.42 17.11 8.33 16.87 8.33 17.43 14.42 17.67 14.42 17.11" style="fill: url(#linear-gradient-42)"></polyline> <polyline points="16.33 17.18 14.96 17.13 14.96 17.69 16.33 17.74 16.33 17.18" style="fill: url(#linear-gradient-43)"></polyline> <polyline points="14.42 18.23 8.32 18 8.32 18.57 14.42 18.79 14.42 18.23" style="fill: url(#linear-gradient-44)"></polyline> <polyline points="16.33 18.3 14.96 18.25 14.96 18.81 16.33 18.86 16.33 18.3" style="fill: url(#linear-gradient-45)"></polyline> <polyline points="11.38 19.25 6.45 19.07 6.45 19.64 11.38 19.81 11.38 19.25" style="fill: url(#linear-gradient-46)"></polyline> <polyline points="12.62 20.42 6.45 20.21 6.45 20.78 12.62 20.98 12.62 20.42" style="fill: url(#linear-gradient-47)"></polyline> <polyline points="10.07 21.47 6.45 21.35 6.44 21.92 10.07 22.03 10.07 21.47" style="fill: url(#linear-gradient-48)"></polyline> <polyline points="14.19 21.6 10.62 21.49 10.62 22.05 14.19 22.16 14.19 21.6" style="fill: url(#linear-gradient-49)"></polyline> <polyline points="17.26 22.82 6.44 22.49 6.44 23.07 17.26 23.38 17.26 22.82" style="fill: url(#linear-gradient-50)"></polyline> <polyline points="14.77 23.87 6.44 23.64 6.44 24.21 14.77 24.43 14.77 23.87" style="fill: url(#linear-gradient-51)"></polyline> <polyline points="18.41 23.97 15.34 23.88 15.34 24.45 18.41 24.53 18.41 23.97" style="fill: url(#linear-gradient-52)"></polyline> <polyline points="18.62 25.1 6.43 24.78 6.43 25.35 18.62 25.66 18.62 25.1" style="fill: url(#linear-gradient-53)"></polyline> <polyline points="8.38 25.97 6.43 25.92 6.43 26.5 8.37 26.54 8.38 25.97" style="fill: url(#linear-gradient-54)"></polyline> <polyline points="20.36 26.26 9.06 25.99 9.06 26.56 20.36 26.82 20.36 26.26" style="fill: url(#linear-gradient-55)"></polyline> <polyline points="10.52 27.16 6.42 27.07 6.42 27.64 10.52 27.73 10.52 27.16" style="fill: url(#linear-gradient-56)"></polyline> <polyline points="11.41 28.32 6.42 28.22 6.42 28.79 11.41 28.89 11.41 28.32" style="fill: url(#linear-gradient-57)"></polyline> <polyline points="9.34 29.41 6.42 29.36 6.42 29.94 9.34 29.99 9.34 29.41" style="fill: url(#linear-gradient-58)"></polyline> <polyline points="15.86 29.53 9.96 29.43 9.96 30 15.86 30.1 15.86 29.53" style="fill: url(#linear-gradient-59)"></polyline> <polyline points="21.15 29.63 16.4 29.54 16.4 30.11 21.15 30.19 21.15 29.63" style="fill: url(#linear-gradient-60)"></polyline> <polyline points="10.51 30.58 6.41 30.51 6.41 31.08 10.51 31.15 10.51 30.58" style="fill: url(#linear-gradient-61)"></polyline> <polyline points="10.79 31.72 6.41 31.66 6.41 32.23 10.79 32.29 10.79 31.72" style="fill: url(#linear-gradient-62)"></polyline> <polyline points="14.53 31.77 11.41 31.73 11.4 32.3 14.53 32.34 14.53 31.77" style="fill: url(#linear-gradient-63)"></polyline> <polyline points="12.92 32.89 6.41 32.81 6.4 33.38 12.92 33.46 12.92 32.89" style="fill: url(#linear-gradient-64)"></polyline> <polyline points="13.33 34.03 6.4 33.96 6.4 34.53 13.33 34.6 13.33 34.03" style="fill: url(#linear-gradient-65)"></polyline> <polyline points="12.21 35.16 6.4 35.11 6.39 35.69 12.21 35.73 12.21 35.16" style="fill: url(#linear-gradient-66)"></polyline> <polyline points="14.99 36.32 6.39 36.26 6.39 36.84 14.99 36.88 14.99 36.32" style="fill: url(#linear-gradient-67)"></polyline> <polyline points="13.62 37.45 6.39 37.41 6.39 37.99 13.62 38.02 13.62 37.45" style="fill: url(#linear-gradient-68)"></polyline> <polyline points="21.33 37.48 14.29 37.45 14.29 38.02 21.33 38.05 21.33 37.48" style="fill: url(#linear-gradient-69)"></polyline> <polyline points="12.05 38.58 6.38 38.56 6.38 39.14 12.05 39.15 12.05 38.58" style="fill: url(#linear-gradient-70)"></polyline> <polyline points="31.29 9.96 25.57 9.66 25.58 10.21 31.3 10.51 31.29 9.96" style="fill: url(#linear-gradient-71)"></polyline> <polyline points="32.61 7.77 26.92 7.44 26.92 7.99 32.61 8.31 32.61 7.77" style="fill: url(#linear-gradient-72)"></polyline> <polyline points="38.55 8.11 33.88 7.84 33.88 8.38 38.56 8.64 38.55 8.11" style="fill: url(#linear-gradient-73)"></polyline> <polyline points="45.95 8.53 40.53 8.22 40.53 8.76 45.95 9.06 45.95 8.53" style="fill: url(#linear-gradient-74)"></polyline> <polyline points="50.47 8.79 47.13 8.6 47.14 9.13 50.48 9.31 50.47 8.79" style="fill: url(#linear-gradient-75)"></polyline> <polyline points="59.73 9.32 54.58 9.03 54.59 9.55 59.74 9.84 59.73 9.32" style="fill: url(#linear-gradient-76)"></polyline> <polyline points="65.13 9.63 60.89 9.39 60.9 9.9 65.14 10.14 65.13 9.63" style="fill: url(#linear-gradient-77)"></polyline> <polyline points="71.84 10.01 66.92 9.73 66.93 10.24 71.85 10.52 71.84 10.01" style="fill: url(#linear-gradient-78)"></polyline> <polyline points="75.95 10.25 72.92 10.07 72.93 10.58 75.96 10.75 75.95 10.25" style="fill: url(#linear-gradient-79)"></polyline> <polyline points="32.92 10.9 25.58 10.52 25.58 11.07 32.92 11.44 32.92 10.9" style="fill: url(#linear-gradient-80)"></polyline> <polyline points="29.41 11.58 25.58 11.38 25.58 11.93 29.41 12.12 29.41 11.58" style="fill: url(#linear-gradient-81)"></polyline> <polyline points="43.28 12.27 29.95 11.6 29.95 12.15 43.29 12.8 43.28 12.27" style="fill: url(#linear-gradient-82)"></polyline> <polyline points="31.69 12.54 25.58 12.24 25.58 12.79 31.69 13.09 31.69 12.54" style="fill: url(#linear-gradient-83)"></polyline> <polyline points="38.34 12.87 32.37 12.57 32.38 13.12 38.34 13.4 38.34 12.87" style="fill: url(#linear-gradient-84)"></polyline> <polyline points="48.7 13.37 39.01 12.9 39.01 13.44 48.71 13.9 48.7 13.37" style="fill: url(#linear-gradient-85)"></polyline> <polyline points="25.07 9.63 24.34 9.59 24.35 10.14 25.07 10.18 25.07 9.63" style="fill: url(#linear-gradient-86)"></polyline> <polyline points="25.07 10.49 24.35 10.46 24.35 11.01 25.07 11.05 25.07 10.49" style="fill: url(#linear-gradient-87)"></polyline> <polyline points="58.17 11.39 56.57 11.31 56.57 11.83 58.18 11.91 58.17 11.39" style="fill: url(#linear-gradient-88)"></polyline> <polyline points="57.58 12.18 56.58 12.13 56.58 12.65 57.59 12.7 57.58 12.18" style="fill: url(#linear-gradient-89)"></polyline> <polyline points="60.3 13.13 59.09 13.07 59.09 13.58 60.31 13.64 60.3 13.13" style="fill: url(#linear-gradient-90)"></polyline> <polyline points="61.94 13.21 60.73 13.15 60.73 13.66 61.94 13.72 61.94 13.21" style="fill: url(#linear-gradient-91)"></polyline> <polyline points="58.62 13.04 56.59 12.94 56.59 13.46 58.63 13.56 58.62 13.04" style="fill: url(#linear-gradient-92)"></polyline> <polyline points="57.46 13.8 56.59 13.76 56.6 14.28 57.47 14.32 57.46 13.8" style="fill: url(#linear-gradient-93)"></polyline> <polyline points="61.61 14 57.91 13.82 57.92 14.34 61.62 14.52 61.61 14" style="fill: url(#linear-gradient-94)"></polyline> <polyline points="63.86 14.11 62.03 14.02 62.04 14.54 63.87 14.62 63.86 14.11" style="fill: url(#linear-gradient-95)"></polyline> <polyline points="61.76 14.82 58.06 14.64 58.06 15.16 61.77 15.33 61.76 14.82" style="fill: url(#linear-gradient-96)"></polyline> <polyline points="65.36 14.99 62.17 14.84 62.18 15.35 65.37 15.5 65.36 14.99" style="fill: url(#linear-gradient-97)"></polyline> <polyline points="57.61 14.62 56.6 14.57 56.61 15.09 57.62 15.14 57.61 14.62" style="fill: url(#linear-gradient-98)"></polyline> <polyline points="57.05 15.41 56.62 15.39 56.62 15.91 57.06 15.93 57.05 15.41" style="fill: url(#linear-gradient-99)"></polyline> <polyline points="60.13 15.55 57.55 15.43 57.55 15.95 60.13 16.07 60.13 15.55" style="fill: url(#linear-gradient-100)"></polyline> <polyline points="63.21 15.69 60.66 15.57 60.66 16.09 63.21 16.2 63.21 15.69" style="fill: url(#linear-gradient-101)"></polyline> <polyline points="62.19 16.45 59.64 16.34 59.64 16.86 62.2 16.97 62.19 16.45" style="fill: url(#linear-gradient-102)"></polyline> <polyline points="57.63 16.25 56.62 16.2 56.63 16.73 57.63 16.77 57.63 16.25" style="fill: url(#linear-gradient-103)"></polyline> <polyline points="59.17 16.32 58.08 16.27 58.08 16.79 59.18 16.84 59.17 16.32" style="fill: url(#linear-gradient-104)"></polyline> <polyline points="57.64 17.07 56.63 17.02 56.64 17.55 57.65 17.59 57.64 17.07" style="fill: url(#linear-gradient-105)"></polyline> <polyline points="57.37 17.87 56.64 17.84 56.65 18.36 57.38 18.39 57.37 17.87" style="fill: url(#linear-gradient-106)"></polyline> <polyline points="59.2 17.95 57.92 17.89 57.93 18.42 59.2 18.47 59.2 17.95" style="fill: url(#linear-gradient-107)"></polyline> <polyline points="63.16 18.11 59.72 17.97 59.73 18.49 63.17 18.63 63.16 18.11" style="fill: url(#linear-gradient-108)"></polyline> <polyline points="57.66 18.7 56.65 18.66 56.66 19.18 57.66 19.22 57.66 18.7" style="fill: url(#linear-gradient-109)"></polyline> <polyline points="57.67 19.52 56.66 19.48 56.67 20 57.67 20.04 57.67 19.52" style="fill: url(#linear-gradient-110)"></polyline> <polyline points="57.68 20.34 56.67 20.3 56.68 20.82 57.69 20.86 57.68 20.34" style="fill: url(#linear-gradient-111)"></polyline> <polyline points="57.69 21.15 56.68 21.12 56.69 21.64 57.7 21.67 57.69 21.15" style="fill: url(#linear-gradient-112)"></polyline> <polyline points="59.08 19.57 58.08 19.53 58.08 20.05 59.09 20.09 59.08 19.57" style="fill: url(#linear-gradient-113)"></polyline> <polyline points="59.92 19.6 59.45 19.58 59.46 20.1 59.93 20.12 59.92 19.6" style="fill: url(#linear-gradient-114)"></polyline> <polyline points="59.56 20.4 58.09 20.35 58.09 20.87 59.56 20.92 59.56 20.4" style="fill: url(#linear-gradient-115)"></polyline> <polyline points="61.48 20.47 60.02 20.42 60.03 20.94 61.49 20.99 61.48 20.47" style="fill: url(#linear-gradient-116)"></polyline> <polyline points="60.94 21.27 59.47 21.22 59.48 21.73 60.94 21.78 60.94 21.27" style="fill: url(#linear-gradient-117)"></polyline> <polyline points="64.07 21.38 61.39 21.29 61.4 21.8 64.07 21.89 64.07 21.38" style="fill: url(#linear-gradient-118)"></polyline> <polyline points="59.1 21.2 58.1 21.17 58.1 21.69 59.11 21.72 59.1 21.2" style="fill: url(#linear-gradient-119)"></polyline> <polyline points="57.7 21.97 56.69 21.94 56.7 22.46 57.7 22.49 57.7 21.97" style="fill: url(#linear-gradient-120)"></polyline> <polyline points="57.41 22.78 56.7 22.76 56.71 23.28 57.42 23.3 57.41 22.78" style="fill: url(#linear-gradient-121)"></polyline> <polyline points="57.42 23.6 56.71 23.58 56.72 24.1 57.43 24.13 57.42 23.6" style="fill: url(#linear-gradient-122)"></polyline> <polyline points="58.14 24.44 56.72 24.4 56.73 24.92 58.14 24.96 58.14 24.44" style="fill: url(#linear-gradient-123)"></polyline> <polyline points="58.15 25.26 56.73 25.22 56.74 25.75 58.15 25.78 58.15 25.26" style="fill: url(#linear-gradient-124)"></polyline> <polyline points="25.07 11.36 24.35 11.32 24.35 11.87 25.07 11.9 25.07 11.36" style="fill: url(#linear-gradient-125)"></polyline> <polyline points="25.07 12.22 24.35 12.18 24.35 12.73 25.07 12.77 25.07 12.22" style="fill: url(#linear-gradient-126)"></polyline> <polyline points="26.91 13.17 25.48 13.1 25.48 13.65 26.91 13.72 26.91 13.17" style="fill: url(#linear-gradient-127)"></polyline> <polyline points="29.28 13.28 27.41 13.19 27.41 13.74 29.28 13.83 29.28 13.28" style="fill: url(#linear-gradient-128)"></polyline> <polyline points="38.73 13.73 29.8 13.31 29.8 13.85 38.73 14.27 38.73 13.73" style="fill: url(#linear-gradient-129)"></polyline> <polyline points="26.2 14 25.48 13.97 25.49 14.51 26.2 14.55 26.2 14" style="fill: url(#linear-gradient-130)"></polyline> <polyline points="30.5 14.2 26.7 14.02 26.7 14.57 30.5 14.74 30.5 14.2" style="fill: url(#linear-gradient-131)"></polyline> <polyline points="38.44 14.56 31.05 14.22 31.06 14.76 38.45 15.09 38.44 14.56" style="fill: url(#linear-gradient-132)"></polyline> <polyline points="31.36 25.47 25.61 25.32 25.61 25.87 31.36 26.01 31.36 25.47" style="fill: url(#linear-gradient-133)"></polyline> <polyline points="32.99 26.37 25.61 26.19 25.61 26.74 32.99 26.91 32.99 26.37" style="fill: url(#linear-gradient-134)"></polyline> <polyline points="27.6 14.92 25.49 14.83 25.49 15.38 27.6 15.47 27.6 14.92" style="fill: url(#linear-gradient-135)"></polyline> <polyline points="29.58 15.01 28.14 14.95 28.14 15.49 29.59 15.56 29.58 15.01" style="fill: url(#linear-gradient-136)"></polyline> <polyline points="36.17 15.3 30.17 15.04 30.17 15.58 36.17 15.84 36.17 15.3" style="fill: url(#linear-gradient-137)"></polyline> <polyline points="26.92 15.76 25.49 15.69 25.49 16.25 26.92 16.3 26.92 15.76" style="fill: url(#linear-gradient-138)"></polyline> <polyline points="26.93 17.48 25.49 17.43 25.49 17.97 26.93 18.03 26.93 17.48" style="fill: url(#linear-gradient-139)"></polyline> <polyline points="29.59 15.87 27.43 15.78 27.44 16.33 29.59 16.42 29.59 15.87" style="fill: url(#linear-gradient-140)"></polyline> <polyline points="29.59 17.59 27.44 17.5 27.44 18.05 29.59 18.13 29.59 17.59" style="fill: url(#linear-gradient-141)"></polyline> <polyline points="38.61 16.25 30.17 15.89 30.18 16.44 38.61 16.79 38.61 16.25" style="fill: url(#linear-gradient-142)"></polyline> <polyline points="36.42 17.86 30.18 17.61 30.18 18.16 36.42 18.4 36.42 17.86" style="fill: url(#linear-gradient-143)"></polyline> <polyline points="37.94 17.92 36.93 17.88 36.94 18.42 37.95 18.46 37.94 17.92" style="fill: url(#linear-gradient-144)"></polyline> <polyline points="43.33 18.13 38.42 17.94 38.43 18.48 43.33 18.66 43.33 18.13" style="fill: url(#linear-gradient-145)"></polyline> <polyline points="47.12 18.28 45.63 18.23 45.64 18.75 47.13 18.81 47.12 18.28" style="fill: url(#linear-gradient-146)"></polyline> <polyline points="51.67 18.46 50.2 18.41 50.21 18.93 51.68 18.99 51.67 18.46" style="fill: url(#linear-gradient-147)"></polyline> <polyline points="26.92 16.63 25.49 16.57 25.49 17.12 26.92 17.18 26.92 16.63" style="fill: url(#linear-gradient-148)"></polyline> <polyline points="36.41 17.02 28.61 16.7 28.61 17.25 36.42 17.56 36.41 17.02" style="fill: url(#linear-gradient-149)"></polyline> <polyline points="37.94 17.09 36.93 17.04 36.93 17.58 37.94 17.62 37.94 17.09" style="fill: url(#linear-gradient-150)"></polyline> <polyline points="43.32 17.31 38.42 17.11 38.42 17.64 43.33 17.84 43.32 17.31" style="fill: url(#linear-gradient-151)"></polyline> <polyline points="47.11 17.46 45.63 17.4 45.63 17.93 47.12 17.99 47.11 17.46" style="fill: url(#linear-gradient-152)"></polyline> <polyline points="51.66 17.65 50.2 17.59 50.2 18.11 51.67 18.17 51.66 17.65" style="fill: url(#linear-gradient-153)"></polyline> <polyline points="27.43 18.36 26 18.31 26 18.86 27.43 18.91 27.43 18.36" style="fill: url(#linear-gradient-154)"></polyline> <polyline points="27.43 19.23 26 19.17 26 19.73 27.43 19.78 27.43 19.23" style="fill: url(#linear-gradient-155)"></polyline> <polyline points="29.69 18.45 27.91 18.38 27.91 18.93 29.7 19 29.69 18.45" style="fill: url(#linear-gradient-156)"></polyline> <polyline points="29.7 19.31 27.91 19.24 27.91 19.8 29.7 19.86 29.7 19.31" style="fill: url(#linear-gradient-157)"></polyline> <polyline points="30.74 18.49 30.18 18.47 30.18 19.02 30.75 19.04 30.74 18.49" style="fill: url(#linear-gradient-158)"></polyline> <polyline points="30.75 19.35 30.19 19.33 30.19 19.88 30.75 19.9 30.75 19.35" style="fill: url(#linear-gradient-159)"></polyline> <polyline points="28.62 20.13 26.89 20.07 26.89 20.62 28.62 20.68 28.62 20.13" style="fill: url(#linear-gradient-160)"></polyline> <polyline points="31.8 20.25 29.11 20.15 29.11 20.7 31.8 20.79 31.8 20.25" style="fill: url(#linear-gradient-161)"></polyline> <polyline points="30.25 21.05 26.89 20.93 26.9 21.49 30.25 21.6 30.25 21.05" style="fill: url(#linear-gradient-162)"></polyline> <polyline points="34.07 21.18 30.75 21.06 30.75 21.61 34.07 21.72 34.07 21.18" style="fill: url(#linear-gradient-163)"></polyline> <polyline points="36.78 21.27 34.63 21.19 34.63 21.74 36.79 21.81 36.78 21.27" style="fill: url(#linear-gradient-164)"></polyline> <polyline points="33.89 22.02 26.9 21.8 26.9 22.35 33.89 22.57 33.89 22.02" style="fill: url(#linear-gradient-165)"></polyline> <polyline points="59.85 22.86 58.3 22.81 58.3 23.33 59.85 23.38 59.85 22.86" style="fill: url(#linear-gradient-166)"></polyline> <polyline points="62.68 22.95 60.28 22.87 60.29 23.39 62.69 23.47 62.68 22.95" style="fill: url(#linear-gradient-167)"></polyline> <polyline points="61.31 23.72 58.31 23.63 58.31 24.15 61.32 24.24 61.31 23.72" style="fill: url(#linear-gradient-168)"></polyline> <polyline points="64.72 23.82 61.76 23.73 61.77 24.25 64.73 24.34 64.72 23.82" style="fill: url(#linear-gradient-169)"></polyline> <polyline points="67.15 23.9 65.22 23.84 65.23 24.36 67.16 24.41 67.15 23.9" style="fill: url(#linear-gradient-170)"></polyline> <polyline points="73.19 24.88 71.3 24.83 71.31 25.33 73.19 25.39 73.19 24.88" style="fill: url(#linear-gradient-171)"></polyline> <polyline points="69.48 25.57 67.56 25.52 67.57 26.03 69.48 26.09 69.48 25.57" style="fill: url(#linear-gradient-172)"></polyline> <polyline points="64.57 24.63 59.03 24.47 59.04 24.99 64.58 25.14 64.57 24.63" style="fill: url(#linear-gradient-173)"></polyline> <polyline points="70.65 24.81 65.23 24.65 65.24 25.16 70.66 25.31 70.65 24.81" style="fill: url(#linear-gradient-174)"></polyline> <polyline points="66.91 25.5 59.04 25.29 59.05 25.81 66.92 26.02 66.91 25.5" style="fill: url(#linear-gradient-175)"></polyline> <polyline points="74.73 17 72.86 16.92 72.87 17.43 74.74 17.51 74.73 17" style="fill: url(#linear-gradient-176)"></polyline> <polyline points="69.94 16 64.53 15.75 64.53 16.26 69.95 16.5 69.94 16" style="fill: url(#linear-gradient-177)"></polyline> <polyline points="75.88 16.27 70.59 16.03 70.6 16.53 75.89 16.77 75.88 16.27" style="fill: url(#linear-gradient-178)"></polyline> <polyline points="72.22 16.89 64.54 16.55 64.55 17.07 72.23 17.4 72.22 16.89" style="fill: url(#linear-gradient-179)"></polyline> <polyline points="31.59 22.81 26 22.64 26.01 23.2 31.59 23.36 31.59 22.81" style="fill: url(#linear-gradient-180)"></polyline> <polyline points="35.46 22.93 32.09 22.83 32.09 23.38 35.46 23.47 35.46 22.93" style="fill: url(#linear-gradient-181)"></polyline> <polyline points="39.26 23.05 35.94 22.95 35.94 23.49 39.26 23.59 39.26 23.05" style="fill: url(#linear-gradient-182)"></polyline> <polyline points="34.57 23.76 26.01 23.51 26.01 24.06 34.57 24.3 34.57 23.76" style="fill: url(#linear-gradient-183)"></polyline> <polyline points="30.57 24.52 26.87 24.42 26.87 24.97 30.57 25.07 30.57 24.52" style="fill: url(#linear-gradient-184)"></polyline> <polyline points="36.18 24.68 31.05 24.54 31.05 25.08 36.18 25.22 36.18 24.68" style="fill: url(#linear-gradient-185)"></polyline> <polyline points="43.78 24.89 36.75 24.69 36.75 25.23 43.78 25.42 43.78 24.89" style="fill: url(#linear-gradient-186)"></polyline> </g> </g> </g> </g> </g> </svg> 